<!-- icon666.com - MILLIONS OF FREE VECTOR ICONS --><svg id="svg11425" viewBox="0 0 16.933333 16.933334" xmlns="http://www.w3.org/2000/svg" xmlns:svg="http://www.w3.org/2000/svg"><g id="layer1" transform="translate(0 -280.067)"><path id="path7474" d="m6.0859352 289.06301c-1.9009524 0-3.4395834 1.53811-3.4395834 3.43907v3.70313a.26460982.26460982 0 0 0 .2635499.26562h11.1135333a.26460982.26460982 0 0 0 .26355-.26562v-3.70313c0-1.90096-1.53863-3.43907-3.439583-3.43907z" fill="#dbe9ee" font-variant-ligatures="normal" font-variant-position="normal" font-variant-caps="normal" font-variant-numeric="normal" font-variant-alternates="normal" font-feature-settings="normal" text-indent="0" text-align="start" text-decoration-line="none" text-decoration-style="solid" text-decoration-color="#000000" text-transform="none" text-orientation="mixed" white-space="normal" shape-padding="0" isolation="auto" mix-blend-mode="normal" solid-color="#000000" solid-opacity="1" vector-effect="none"></path><path id="path7481" d="m7.1447853 289.06301a.26460982.26460982 0 0 0 -.2578653.32194l1.3141317 5.78828v1.2976h.5291667v-1.2883l1.3167156-5.79758a.26460982.26460982 0 0 0 -.2578656-.32194z" fill="#33b9ef" font-variant-ligatures="normal" font-variant-position="normal" font-variant-caps="normal" font-variant-numeric="normal" font-variant-alternates="normal" font-feature-settings="normal" text-indent="0" text-align="start" text-decoration-line="none" text-decoration-style="solid" text-decoration-color="#000000" text-transform="none" text-orientation="mixed" white-space="normal" shape-padding="0" isolation="auto" mix-blend-mode="normal" solid-color="#000000" solid-opacity="1" vector-effect="none"></path><path id="path4759" d="m4.4980486 296.47083v-1.85637c0-.35286.5292969-.35286.5292969 0v1.85637z" fill="#c8d4d9" font-variant-ligatures="normal" font-variant-position="normal" font-variant-caps="normal" font-variant-numeric="normal" font-variant-alternates="normal" font-feature-settings="normal" text-indent="0" text-align="start" text-decoration-line="none" text-decoration-style="solid" text-decoration-color="#000000" text-transform="none" text-orientation="mixed" white-space="normal" shape-padding="0" isolation="auto" mix-blend-mode="normal" solid-color="#000000" solid-opacity="1" vector-effect="none"></path><path id="path4761" d="m11.906252 296.47083v-1.85637c0-.35286.529297-.35286.529297 0v1.85637z" fill="#c8d4d9" font-variant-ligatures="normal" font-variant-position="normal" font-variant-caps="normal" font-variant-numeric="normal" font-variant-alternates="normal" font-feature-settings="normal" text-indent="0" text-align="start" text-decoration-line="none" text-decoration-style="solid" text-decoration-color="#000000" text-transform="none" text-orientation="mixed" white-space="normal" shape-padding="0" isolation="auto" mix-blend-mode="normal" solid-color="#000000" solid-opacity="1" vector-effect="none"></path><path id="path7464" d="m6.8789079 287.74049v1.58594c-.000003.0285.00461.0569.013671.084 0 0 .088114.25999.3281251.5.240011.24001.650779.47461 1.2460936.47461.5953149 0 1.0060805-.2346 1.2460939-.47461.2400133-.24001.3281255-.5.3281255-.5.0091-.0271.01367-.0554.01367-.084v-1.58594z" fill="#fdce97" font-variant-ligatures="normal" font-variant-position="normal" font-variant-caps="normal" font-variant-numeric="normal" font-variant-alternates="normal" font-feature-settings="normal" text-indent="0" text-align="start" text-decoration-line="none" text-decoration-style="solid" text-decoration-color="#000000" text-transform="none" text-orientation="mixed" white-space="normal" shape-padding="0" isolation="auto" mix-blend-mode="normal" solid-color="#000000" solid-opacity="1" vector-effect="none"></path><path id="path4765" d="m6.0859352 289.06301c-.1804501 0-.3562525.0177-.5291667.0444v2.86546h.5291667z" fill="#2f5c7e" font-variant-ligatures="normal" font-variant-position="normal" font-variant-caps="normal" font-variant-numeric="normal" font-variant-alternates="normal" font-feature-settings="normal" text-indent="0" text-align="start" text-decoration-line="none" text-decoration-style="solid" text-decoration-color="#000000" text-transform="none" text-orientation="mixed" white-space="normal" shape-padding="0" isolation="auto" mix-blend-mode="normal" solid-color="#000000" solid-opacity="1" vector-effect="none"></path><path id="path7500" d="m5.8203142 291.70742c-.4352436-.00001-.7929682.35967-.7929687.79492-.0000003.43524.3577246.79297.7929687.79297.4352385-.00001.7949221-.35774.7949221-.79297-.0000008-.43524-.3596841-.79492-.7949221-.79492z" fill="#33658a" font-variant-ligatures="normal" font-variant-position="normal" font-variant-caps="normal" font-variant-numeric="normal" font-variant-alternates="normal" font-feature-settings="normal" text-indent="0" text-align="start" text-decoration-line="none" text-decoration-style="solid" text-decoration-color="#000000" text-transform="none" text-orientation="mixed" white-space="normal" shape-padding="0" isolation="auto" mix-blend-mode="normal" solid-color="#000000" solid-opacity="1" vector-effect="none"></path><path id="path4767" d="m5.8203142 292.23671c.1492578 0 .265625.11637.265625.26563.0000002.14925-.116367.26367-.265625.26367-.14926 0-.2636719-.11441-.2636719-.26367.0000003-.14926.1144122-.26563.2636719-.26563z" fill="#dbe9ee" font-variant-ligatures="normal" font-variant-position="normal" font-variant-caps="normal" font-variant-numeric="normal" font-variant-alternates="normal" font-feature-settings="normal" text-indent="0" text-align="start" text-decoration-line="none" text-decoration-style="solid" text-decoration-color="#000000" text-transform="none" text-orientation="mixed" white-space="normal" shape-padding="0" isolation="auto" mix-blend-mode="normal" solid-color="#000000" solid-opacity="1" vector-effect="none"></path><path id="path4769" d="m10.847402 289.06301v2.64428h.529683v-2.59932c-.173098-.0268-.349031-.045-.529683-.045z" fill="#2f5c7e" font-variant-ligatures="normal" font-variant-position="normal" font-variant-caps="normal" font-variant-numeric="normal" font-variant-alternates="normal" font-feature-settings="normal" text-indent="0" text-align="start" text-decoration-line="none" text-decoration-style="solid" text-decoration-color="#000000" text-transform="none" text-orientation="mixed" white-space="normal" shape-padding="0" isolation="auto" mix-blend-mode="normal" solid-color="#000000" solid-opacity="1" vector-effect="none"></path><path id="path4771" d="m11.113283 291.44374c-.728323 0-1.3242188.59395-1.3242188 1.32227v.26562c0 .35287.5292968.35287.5292968 0v-.26562c0-.44432.350605-.79297.794922-.79297.444305 0 .792969.34865.792969.79297v.26562c0 .35287.529297.35287.529297 0v-.26562c0-.72832-.593951-1.32227-1.322266-1.32227z" fill="#33658a" font-variant-ligatures="normal" font-variant-position="normal" font-variant-caps="normal" font-variant-numeric="normal" font-variant-alternates="normal" font-feature-settings="normal" text-indent="0" text-align="start" text-decoration-line="none" text-decoration-style="solid" text-decoration-color="#000000" text-transform="none" text-orientation="mixed" white-space="normal" shape-padding="0" isolation="auto" mix-blend-mode="normal" solid-color="#000000" solid-opacity="1" vector-effect="none"></path><path id="path7442" d="m8.4666685 280.59583c-1.7503717 0-3.1755168 1.42567-3.1755168 3.17603 0 .42242.068085.87154.1813843 1.32188h5.988265c.113372-.45036.181901-.89947.181901-1.32188 0-1.75037-1.425663-3.17603-3.1760335-3.17603z" fill="#33658a" font-variant-ligatures="normal" font-variant-position="normal" font-variant-caps="normal" font-variant-numeric="normal" font-variant-alternates="normal" font-feature-settings="normal" text-indent="0" text-align="start" text-decoration-line="none" text-decoration-style="solid" text-decoration-color="#000000" text-transform="none" text-orientation="mixed" white-space="normal" shape-padding="0" isolation="auto" mix-blend-mode="normal" solid-color="#000000" solid-opacity="1" vector-effect="none"></path><path id="path7514" d="m6.3500018 284.97902c-.5693317-.3992-1.3224.029-1.3224.6395 0 .82088.6653306 1.32731 1.3221418 1.32731z" fill="#fdce97" font-variant-ligatures="normal" font-variant-position="normal" font-variant-caps="normal" font-variant-numeric="normal" font-variant-alternates="normal" font-feature-settings="normal" text-indent="0" text-align="start" text-decoration-line="none" text-decoration-style="solid" text-decoration-color="#000000" text-transform="none" text-orientation="mixed" white-space="normal" shape-padding="0" isolation="auto" mix-blend-mode="normal" solid-color="#000000" solid-opacity="1" vector-effect="none"></path><path id="path7516" d="m10.583898 284.97902c.569332-.3992 1.3224.029 1.3224.6395 0 .82088-.665331 1.32731-1.322142 1.32731z" fill="#fdce97" font-variant-ligatures="normal" font-variant-position="normal" font-variant-caps="normal" font-variant-numeric="normal" font-variant-alternates="normal" font-feature-settings="normal" text-indent="0" text-align="start" text-decoration-line="none" text-decoration-style="solid" text-decoration-color="#000000" text-transform="none" text-orientation="mixed" white-space="normal" shape-padding="0" isolation="auto" mix-blend-mode="normal" solid-color="#000000" solid-opacity="1" vector-effect="none"></path><path id="path7449" d="m8.9823994 283.50624a.26460982.26460982 0 0 0 -.2382285.18139s-.1893202.61133-.8066691.61133h-1.5880167a.26460982.26460982 0 0 0 -.2635499.26562v1.58801c0 1.31464 1.0660991 2.38074 2.3807333 2.38074 1.3146429 0 2.3807225-1.06611 2.3807335-2.38074v-1.58801a.26460982.26460982 0 0 0 -.26355-.26562h-.529167c-.6173738 0-.808736-.61133-.808736-.61133a.26460982.26460982 0 0 0 -.2635496-.18139z" fill="#fdd5a6" font-variant-ligatures="normal" font-variant-position="normal" font-variant-caps="normal" font-variant-numeric="normal" font-variant-alternates="normal" font-feature-settings="normal" text-indent="0" text-align="start" text-decoration-line="none" text-decoration-style="solid" text-decoration-color="#000000" text-transform="none" text-orientation="mixed" white-space="normal" shape-padding="0" isolation="auto" mix-blend-mode="normal" solid-color="#000000" solid-opacity="1" vector-effect="none"></path></g></svg>